
<svg width="65" height="66" viewBox="0 0 65 66" fill="none" xmlns="http://www.w3.org/2000/svg">
<ellipse cx="32.4652" cy="33.0636" rx="32.4652" ry="32.46" fill="#F1F1F1"/>
<path fill-rule="evenodd" clip-rule="evenodd" d="M27.0039 20.0592C28.3859 19.9956 28.8266 19.9814 32.347 19.9814C35.8674 19.9814 36.308 19.9968 37.6889 20.0592C39.0697 20.1216 40.0123 20.3419 40.837 20.6612C41.7006 20.9875 42.4841 21.4975 43.1321 22.1572C43.7919 22.8039 44.3009 23.5861 44.626 24.4508C44.9465 25.2754 45.1656 26.2178 45.2293 27.596C45.2929 28.9802 45.307 29.4208 45.307 32.9394C45.307 36.4593 45.2917 36.8999 45.2293 38.2817C45.1668 39.6599 44.9465 40.6023 44.626 41.4269C44.3008 42.2917 43.791 43.0752 43.1321 43.7228C42.4841 44.3825 41.7006 44.8914 40.837 45.2165C40.0123 45.537 39.0697 45.7561 37.6912 45.8197C36.308 45.8833 35.8674 45.8974 32.347 45.8974C28.8266 45.8974 28.3859 45.8821 27.0039 45.8197C25.6254 45.7572 24.6829 45.537 23.8582 45.2165C22.9933 44.8914 22.2097 44.3816 21.5619 43.7228C20.9026 43.0757 20.3923 42.2926 20.0668 41.4281C19.7475 40.6035 19.5283 39.6611 19.4647 38.2828C19.4011 36.8987 19.387 36.4581 19.387 32.9394C19.387 29.4196 19.4023 28.979 19.4647 27.5984C19.5272 26.2178 19.7475 25.2754 20.0668 24.4508C20.3928 23.5862 20.9034 22.8031 21.5631 22.156C22.2099 21.4969 22.9928 20.9868 23.857 20.6612C24.6817 20.3419 25.6243 20.1228 27.0027 20.0592H27.0039ZM37.584 22.3916C36.2173 22.3292 35.8073 22.3162 32.347 22.3162C28.8867 22.3162 28.4767 22.3292 27.11 22.3916C25.8458 22.4494 25.1601 22.6602 24.7029 22.8381C24.0985 23.0737 23.6661 23.3529 23.2125 23.8064C22.7825 24.2247 22.4516 24.7338 22.2441 25.2966C22.0662 25.7536 21.8553 26.4392 21.7975 27.7032C21.7351 29.0697 21.7221 29.4797 21.7221 32.9394C21.7221 36.3992 21.7351 36.8092 21.7975 38.1756C21.8553 39.4396 22.0662 40.1252 22.2441 40.5823C22.4514 41.1442 22.7825 41.6543 23.2125 42.0725C23.6308 42.5024 24.1409 42.8334 24.7029 43.0408C25.1601 43.2187 25.8458 43.4295 27.11 43.4872C28.4767 43.5497 28.8855 43.5626 32.347 43.5626C35.8085 43.5626 36.2173 43.5497 37.584 43.4872C38.8482 43.4295 39.5339 43.2187 39.9911 43.0408C40.5955 42.8052 41.0279 42.526 41.4815 42.0725C41.9115 41.6543 42.2426 41.1442 42.4499 40.5823C42.6278 40.1252 42.8387 39.4396 42.8965 38.1756C42.9589 36.8092 42.9719 36.3992 42.9719 32.9394C42.9719 29.4797 42.9589 29.0697 42.8965 27.7032C42.8387 26.4392 42.6278 25.7536 42.4499 25.2966C42.2143 24.6923 41.9351 24.2599 41.4815 23.8064C41.0631 23.3765 40.5539 23.0457 39.9911 22.8381C39.5339 22.6602 38.8482 22.4494 37.584 22.3916ZM30.6916 36.934C31.6161 37.3188 32.6455 37.3707 33.604 37.0809C34.5625 36.7912 35.3907 36.1777 35.9471 35.3452C36.5034 34.5127 36.7535 33.513 36.6545 32.5167C36.5555 31.5203 36.1137 30.5893 35.4044 29.8825C34.9522 29.4307 34.4055 29.0848 33.8036 28.8696C33.2017 28.6544 32.5596 28.5754 31.9234 28.6381C31.2873 28.7008 30.673 28.9038 30.1247 29.2324C29.5764 29.561 29.1079 30.0071 28.7527 30.5385C28.3976 31.0699 28.1647 31.6734 28.0708 32.3056C27.9769 32.9378 28.0244 33.583 28.2098 34.1946C28.3953 34.8063 28.714 35.3692 29.1432 35.8429C29.5723 36.3166 30.1012 36.6892 30.6916 36.934ZM27.6366 28.2298C28.2552 27.6113 28.9895 27.1207 29.7978 26.786C30.606 26.4513 31.4722 26.279 32.347 26.279C33.2218 26.279 34.088 26.4513 34.8962 26.786C35.7044 27.1207 36.4388 27.6113 37.0574 28.2298C37.6759 28.8483 38.1666 29.5825 38.5014 30.3906C38.8362 31.1987 39.0085 32.0648 39.0085 32.9394C39.0085 33.8141 38.8362 34.6802 38.5014 35.4883C38.1666 36.2964 37.6759 37.0306 37.0574 37.6491C35.8081 38.8981 34.1137 39.5999 32.347 39.5999C30.5803 39.5999 28.8859 38.8981 27.6366 37.6491C26.3873 36.4 25.6855 34.7059 25.6855 32.9394C25.6855 31.173 26.3873 29.4789 27.6366 28.2298ZM40.4859 27.2709C40.6392 27.1263 40.7619 26.9525 40.8468 26.7596C40.9317 26.5668 40.977 26.3589 40.98 26.1482C40.9831 25.9375 40.9439 25.7284 40.8647 25.5331C40.7854 25.3379 40.6678 25.1605 40.5188 25.0115C40.3698 24.8626 40.1924 24.745 39.9972 24.6658C39.8019 24.5866 39.5927 24.5473 39.382 24.5504C39.1713 24.5535 38.9634 24.5988 38.7705 24.6837C38.5776 24.7685 38.4037 24.8912 38.2591 25.0445C37.9779 25.3426 37.8239 25.7385 37.8299 26.1482C37.8359 26.5579 38.0013 26.9492 38.2911 27.2389C38.5809 27.5287 38.9722 27.6941 39.382 27.7C39.7918 27.706 40.1878 27.5521 40.4859 27.2709Z" fill="black"/>
</svg>
